<svg id="Layer_1" data-name="Layer 1" xmlns="http://www.w3.org/2000/svg" xmlns:xlink="http://www.w3.org/1999/xlink" viewBox="0 0 725.1 553.05"><defs><style>.cls-1{fill:#edf1fb;}.cls-2,.cls-3,.cls-4,.cls-9{fill:#fff;}.cls-3{stroke:#fbfcfe;}.cls-3,.cls-4,.cls-7,.cls-8,.cls-9{stroke-linecap:round;stroke-linejoin:round;}.cls-3,.cls-4{stroke-width:1.59px;}.cls-4{stroke:#edf1fb;}.cls-5,.cls-6{opacity:0.16;}.cls-10,.cls-20,.cls-31,.cls-5,.cls-6{isolation:isolate;}.cls-5{fill:url(#linear-gradient);}.cls-6{fill:url(#linear-gradient-2);}.cls-15,.cls-25,.cls-54,.cls-7,.cls-8{fill:none;}.cls-7,.cls-8,.cls-9{stroke:#2c3e50;}.cls-54,.cls-7,.cls-9{stroke-width:2px;}.cls-8{stroke-width:1.82px;}.cls-10{opacity:0.21;fill:url(#linear-gradient-3);}.cls-11{fill:#fefefe;}.cls-12{fill:#dadada;}.cls-13{fill:url(#linear-gradient-4);}.cls-14{fill:url(#linear-gradient-5);}.cls-15,.cls-25,.cls-54{stroke-miterlimit:10;}.cls-15{stroke:url(#linear-gradient-6);}.cls-16{fill:#3e8cfc;}.cls-17{fill:url(#linear-gradient-7);}.cls-18{fill:url(#linear-gradient-8);}.cls-19{fill:url(#linear-gradient-9);}.cls-20{opacity:0.2;fill:url(#linear-gradient-10);}.cls-21{fill:#d3d3d3;}.cls-22{fill:#01385b;}.cls-23{fill:#243a7f;}.cls-24{fill:#fe6907;}.cls-25{stroke:#db5e28;}.cls-26{fill:url(#linear-gradient-11);}.cls-27{fill:url(#linear-gradient-12);}.cls-28{fill:url(#linear-gradient-13);}.cls-29{fill:#172a72;}.cls-30{fill:url(#linear-gradient-14);}.cls-31{opacity:0.15;fill:url(#linear-gradient-15);}.cls-32{fill:url(#linear-gradient-16);}.cls-33{fill:url(#linear-gradient-17);}.cls-34{fill:url(#linear-gradient-18);}.cls-35{fill:url(#linear-gradient-19);}.cls-36{fill:url(#linear-gradient-20);}.cls-37{fill:url(#linear-gradient-21);}.cls-38{fill:#8cf4c2;}.cls-39{fill:#40ed99;}.cls-40{fill:url(#linear-gradient-22);}.cls-41{fill:url(#linear-gradient-23);}.cls-42{fill:url(#linear-gradient-24);}.cls-43{fill:#5c2f00;}.cls-44{fill:url(#linear-gradient-25);}.cls-45{fill:url(#linear-gradient-26);}.cls-46{fill:url(#linear-gradient-27);}.cls-47{fill:url(#linear-gradient-28);}.cls-48{fill:url(#linear-gradient-29);}.cls-49{fill:url(#linear-gradient-30);}.cls-50{fill:url(#linear-gradient-31);}.cls-51{fill:url(#linear-gradient-32);}.cls-52{fill:#0852c3;}.cls-53{fill:#031d28;}.cls-54{stroke:#fff;}.cls-55{fill:#452300;}</style><linearGradient id="linear-gradient" x1="574" y1="-75.5" x2="1295.14" y2="-75.5" gradientTransform="matrix(-0.57, 0.01, 0, 0.45, 1095.81, 533.62)" gradientUnits="userSpaceOnUse"><stop offset="0" stop-color="#030303" stop-opacity="0.3"/><stop offset="1" stop-color="#fff" stop-opacity="0"/></linearGradient><linearGradient id="linear-gradient-2" x1="1429.18" y1="-81.32" x2="1826.6" y2="-81.32" xlink:href="#linear-gradient"/><linearGradient id="linear-gradient-3" x1="1440.17" y1="328.43" x2="1586.07" y2="328.43" gradientTransform="translate(2165.27 846.03) rotate(180)" xlink:href="#linear-gradient"/><linearGradient id="linear-gradient-4" x1="770.59" y1="460.1" x2="1148.71" y2="460.1" gradientTransform="matrix(1, 0, 0, -1, -450, 871.12)" gradientUnits="userSpaceOnUse"><stop offset="0" stop-color="#315de8"/><stop offset="0.03" stop-color="#2b63ea"/><stop offset="0.19" stop-color="#1379f4"/><stop offset="0.33" stop-color="#0587fa"/><stop offset="0.46" stop-color="#008cfc"/></linearGradient><linearGradient id="linear-gradient-5" x1="831" y1="401.87" x2="1143.83" y2="401.87" gradientTransform="matrix(1, 0, 0, -1, -450, 871.12)" gradientUnits="userSpaceOnUse"><stop offset="0" stop-color="#3e8cfc"/><stop offset="0.14" stop-color="#2970f7"/><stop offset="0.37" stop-color="#0b47f1"/><stop offset="0.49" stop-color="#0038ee"/><stop offset="0.6" stop-color="#033cef"/><stop offset="0.71" stop-color="#0c49f1"/><stop offset="0.83" stop-color="#1b5df4"/><stop offset="0.94" stop-color="#317af9"/><stop offset="1" stop-color="#3e8cfc"/></linearGradient><linearGradient id="linear-gradient-6" x1="-5803.81" y1="-219.87" x2="-5803.81" y2="-219.87" gradientTransform="translate(-5371.05 811.89) rotate(171.38)" gradientUnits="userSpaceOnUse"><stop offset="0" stop-color="#3f252a"/><stop offset="0.18" stop-color="#2b191d"/><stop offset="0.44" stop-color="#130b0d"/><stop offset="0.69" stop-color="#050303"/><stop offset="0.9"/></linearGradient><linearGradient id="linear-gradient-7" x1="-6078.71" y1="513.48" x2="-6025.64" y2="513.48" gradientTransform="translate(-5443.06 871.12) rotate(180)" gradientUnits="userSpaceOnUse"><stop offset="0" stop-color="#082ac1"/><stop offset="0.34" stop-color="#083fc2"/><stop offset="0.7" stop-color="#084dc3"/><stop offset="1" stop-color="#0852c3"/></linearGradient><linearGradient id="linear-gradient-8" x1="-4942.93" y1="3746.41" x2="-4714.69" y2="3746.41" gradientTransform="translate(-5492.84 1051.04) rotate(-148.54)" xlink:href="#linear-gradient-5"/><linearGradient id="linear-gradient-9" x1="738" y1="400.38" x2="992.75" y2="400.38" gradientTransform="matrix(1, 0, 0, -1, -450, 871.12)" gradientUnits="userSpaceOnUse"><stop offset="0" stop-color="#1946af"/><stop offset="1" stop-color="#1934af"/></linearGradient><linearGradient id="linear-gradient-10" x1="1312.14" y1="75.9" x2="1811.51" y2="75.9" gradientTransform="matrix(-0.44, 0, 0, 0.45, 1032.59, 532.47)" xlink:href="#linear-gradient"/><linearGradient id="linear-gradient-11" x1="-6000.66" y1="485.33" x2="-6000.66" y2="485.33" gradientTransform="translate(-5443.06 871.12) rotate(180)" gradientUnits="userSpaceOnUse"><stop offset="0" stop-color="#fff"/><stop offset="0.29" stop-color="#fafafa"/><stop offset="0.63" stop-color="#ececec"/><stop offset="0.99" stop-color="#d4d4d4"/><stop offset="1" stop-color="#d4d4d4"/></linearGradient><linearGradient id="linear-gradient-12" x1="765.85" y1="421.71" x2="882.7" y2="421.71" gradientTransform="matrix(1, 0, 0, -1, -450, 871.12)" gradientUnits="userSpaceOnUse"><stop offset="0" stop-color="#1946af"/><stop offset="1" stop-color="#0d2d93"/></linearGradient><linearGradient id="linear-gradient-13" x1="-6010.46" y1="536.23" x2="-6010.46" y2="536.23" xlink:href="#linear-gradient-11"/><linearGradient id="linear-gradient-14" x1="-6022.18" y1="473.67" x2="-5895.66" y2="473.67" gradientTransform="translate(-5443.06 871.12) rotate(180)" gradientUnits="userSpaceOnUse"><stop offset="0" stop-color="#ebc1a1"/><stop offset="0.9" stop-color="#ffad84"/></linearGradient><linearGradient id="linear-gradient-15" x1="1625.67" y1="307.93" x2="1740.14" y2="307.93" gradientTransform="translate(2220.67 871.12) rotate(180)" xlink:href="#linear-gradient"/><linearGradient id="linear-gradient-16" x1="982.66" y1="331.26" x2="1035.02" y2="331.26" gradientTransform="matrix(1, 0, 0, -1, -450, 871.12)" gradientUnits="userSpaceOnUse"><stop offset="0" stop-color="#fe6907"/><stop offset="0.21" stop-color="#f96b14"/><stop offset="0.51" stop-color="#f36e23"/><stop offset="0.75" stop-color="#f58020"/><stop offset="1" stop-color="#f8971d"/></linearGradient><linearGradient id="linear-gradient-17" x1="999.69" y1="371.38" x2="1009.13" y2="371.38" gradientTransform="matrix(1, 0, 0, -1, -450, 871.12)" gradientUnits="userSpaceOnUse"><stop offset="0" stop-color="#082ac1" stop-opacity="0.1"/><stop offset="0.38" stop-color="#fff" stop-opacity="0.22"/><stop offset="0.99" stop-color="#fff" stop-opacity="0.3"/></linearGradient><linearGradient id="linear-gradient-18" x1="1006.08" y1="373.58" x2="1015.52" y2="373.58" xlink:href="#linear-gradient-17"/><linearGradient id="linear-gradient-19" x1="996.25" y1="372.13" x2="1003.12" y2="372.13" xlink:href="#linear-gradient-17"/><linearGradient id="linear-gradient-20" x1="1148.4" y1="343.63" x2="1194.9" y2="343.63" gradientTransform="matrix(1, 0, 0, -1, -505.4, 846.03)" gradientUnits="userSpaceOnUse"><stop offset="0" stop-color="#082ac1"/><stop offset="0.12" stop-color="#0625ab"/><stop offset="0.36" stop-color="#021b82"/><stop offset="0.49" stop-color="#001773"/><stop offset="0.5" stop-color="#001877"/><stop offset="0.64" stop-color="#042298"/><stop offset="0.77" stop-color="#0629b0"/><stop offset="0.9" stop-color="#082ebe"/><stop offset="1" stop-color="#082fc3"/></linearGradient><linearGradient id="linear-gradient-21" x1="734.85" y1="112.92" x2="790.59" y2="112.92" gradientTransform="matrix(1, 0, 0, -1, -41, 596.72)" gradientUnits="userSpaceOnUse"><stop offset="0" stop-color="#40ed99"/><stop offset="0.27" stop-color="#30b273"/><stop offset="0.52" stop-color="#66f1ad"/><stop offset="0.67" stop-color="#30b273"/><stop offset="1" stop-color="#40ed99"/></linearGradient><linearGradient id="linear-gradient-22" x1="1143.6" y1="363.18" x2="1199.3" y2="363.18" gradientTransform="matrix(1, 0, 0, -1, -505.4, 846.03)" gradientUnits="userSpaceOnUse"><stop offset="0" stop-color="#082ac1"/><stop offset="0.13" stop-color="#0629a9"/><stop offset="0.37" stop-color="#022880"/><stop offset="0.49" stop-color="#002871"/><stop offset="0.51" stop-color="#012b77"/><stop offset="0.65" stop-color="#043c98"/><stop offset="0.78" stop-color="#0648b0"/><stop offset="0.9" stop-color="#084fbe"/><stop offset="1" stop-color="#0852c3"/></linearGradient><linearGradient id="linear-gradient-23" x1="1000.11" y1="605.55" x2="1042.44" y2="605.55" gradientTransform="matrix(0.97, -0.23, -0.23, -0.97, -372.18, 1075.29)" gradientUnits="userSpaceOnUse"><stop offset="0" stop-color="#ebc1a1"/><stop offset="0.07" stop-color="#f1bb98"/><stop offset="0.22" stop-color="#f9b38d"/><stop offset="0.42" stop-color="#feae86"/><stop offset="1" stop-color="#ffad84"/></linearGradient><linearGradient id="linear-gradient-24" x1="967.59" y1="632.81" x2="1018.81" y2="632.81" gradientTransform="matrix(1, 0, 0, -1, -450, 871.12)" xlink:href="#linear-gradient-14"/><linearGradient id="linear-gradient-25" x1="959.67" y1="898.56" x2="964.61" y2="898.56" gradientTransform="matrix(0.99, 0.11, 0.11, -0.99, -519.89, 1026.82)" gradientUnits="userSpaceOnUse"><stop offset="0" stop-color="#ebc1a1" stop-opacity="0.2"/><stop offset="0.05" stop-color="#f0bc9a" stop-opacity="0.24"/><stop offset="0.2" stop-color="#f9b48f" stop-opacity="0.36"/><stop offset="0.41" stop-color="#feaf88" stop-opacity="0.53"/><stop offset="1" stop-color="#ffae86"/></linearGradient><linearGradient id="linear-gradient-26" x1="973.85" y1="586.97" x2="1008.45" y2="586.97" gradientTransform="matrix(1, 0, 0, -1, -450, 871.12)" xlink:href="#linear-gradient-11"/><linearGradient id="linear-gradient-27" x1="1153.85" y1="517.46" x2="1168.08" y2="517.46" gradientTransform="translate(1007.24 1461.49) rotate(-136.61)" xlink:href="#linear-gradient-11"/><linearGradient id="linear-gradient-28" x1="1356.15" y1="-5978.59" x2="1373.91" y2="-5978.59" gradientTransform="translate(-5607.41 262.27) rotate(78.47)" xlink:href="#linear-gradient-11"/><linearGradient id="linear-gradient-29" x1="-5910.8" y1="-749.16" x2="-5807.25" y2="-749.16" gradientTransform="translate(-5386.75 1171.04) rotate(165)" xlink:href="#linear-gradient-14"/><linearGradient id="linear-gradient-30" x1="4070.98" y1="-4797.94" x2="4087.69" y2="-4797.94" gradientTransform="translate(-5769.44 1355.69) rotate(40.54)" xlink:href="#linear-gradient-11"/><linearGradient id="linear-gradient-31" x1="729.3" y1="346.53" x2="749.3" y2="346.53" gradientTransform="matrix(1, 0, 0, -1, -450, 871.12)" xlink:href="#linear-gradient-14"/><linearGradient id="linear-gradient-32" x1="976.97" y1="291.59" x2="993.63" y2="291.59" gradientTransform="matrix(0.2, -0.98, -0.98, -0.2, 442.5, 1555.11)" xlink:href="#linear-gradient-14"/></defs><title>gm_header_illustration_v5</title><rect id="_Path_5" data-name=" Path 5" class="cls-1" x="172.1" y="289.26" width="393.7" height="6.57"/><rect id="_Path_6" data-name=" Path 6" class="cls-1" x="183.23" y="297.83" width="391.33" height="6.57"/><rect id="_Path_9" data-name=" Path 9" class="cls-1" x="183.05" y="301.22" width="377.1" height="108.49"/><rect id="_Path_11" data-name=" Path 11" class="cls-2" x="201.75" y="306.78" width="58.94" height="25.27"/><polygon id="_Path_12" data-name=" Path 12" class="cls-1" points="214.53 316.91 214.53 321.93 224.84 321.93 226.02 319.37 236.43 319.37 237.61 321.93 247.92 321.93 247.92 316.91 214.53 316.91"/><rect id="_Path_13" data-name=" Path 13" class="cls-2" x="201.75" y="338.81" width="58.94" height="54.93"/><rect id="_Path_11-2" data-name=" Path 11" class="cls-2" x="278.72" y="306.6" width="58.94" height="25.27"/><rect id="_Path_13-2" data-name=" Path 13" class="cls-2" x="278.72" y="338.62" width="58.94" height="54.93"/><rect id="_Path_7" data-name=" Path 7" class="cls-1" x="176.11" y="295.83" width="7.12" height="163.87"/><polygon id="_Path_14" data-name=" Path 14" class="cls-1" points="214.53 349.03 214.53 353.95 224.84 353.95 226.02 351.49 236.43 351.49 237.61 353.95 247.92 353.95 247.92 349.03 214.53 349.03"/><polygon id="_Path_12-2" data-name=" Path 12" class="cls-1" points="292.19 316.91 292.19 321.93 302.5 321.93 303.68 319.37 314.08 319.37 315.27 321.93 325.58 321.93 325.58 316.91 292.19 316.91"/><polygon id="_Path_12-3" data-name=" Path 12" class="cls-1" points="291.49 348.98 291.49 354 301.8 354 302.99 351.44 313.39 351.44 314.57 354 324.88 354 324.88 348.98 291.49 348.98"/><g id="_Group_" data-name=" Group "><path id="_Path_" data-name=" Path " class="cls-1" d="M507.9,301.54H372.47a10.2,10.2,0,0,1-10.18-10.18V216.09a10.2,10.2,0,0,1,10.18-10.19H507.9a10.2,10.2,0,0,1,10.18,10.19v75.27A10.14,10.14,0,0,1,508,301.54h-.06Z" transform="translate(-55.4 -25.09)"/><rect id="_Path_2" data-name=" Path 2" class="cls-2" x="314.44" y="187.95" width="140.28" height="73.3"/><circle id="_Path_3" data-name=" Path 3" class="cls-3" cx="384.78" cy="268.73" r="2.86"/><path id="_Path_4" data-name=" Path 4" class="cls-4" d="M453.71,301.54h-27s-1.67,5.18-9.23,9v3.82h45.51v-3.82C455.38,306.64,453.71,301.54,453.71,301.54Z" transform="translate(-55.4 -25.09)"/></g><path class="cls-5" d="M359,513.68c0-19.49,91.93-37.26,205.36-39.8s205.53,11,205.69,30.48-91.92,37.31-205.36,39.71S359,533.16,359,513.68Z" transform="translate(-55.4 -25.09)"/><path class="cls-6" d="M55.4,515c0-7.05,50.66-13.47,113.18-14.39s113.27,4,113.36,11S231.28,525.11,168.76,526,55.4,522,55.4,515Z" transform="translate(-55.4 -25.09)"/><path class="cls-1" d="M765.2,219.59c-1.8-2.5-3.7-5.1-5.5-7.6-8.2-11.6-16.3-23.2-24.4-34.8a5.84,5.84,0,0,1-1.1-3.4c-.2-4.9-.2-9.9-.2-14.9-.1-6.6-4.5-11.8-11-12.6a4.76,4.76,0,0,1-.9-.3h-.7a1.55,1.55,0,0,1-.7-.1l-.2.2c-.2,0-.3-.1-.5-.1a12.47,12.47,0,0,1-1.6.4,4.76,4.76,0,0,0-.7.3c-6,2.3-8.8,6.4-8.8,12.8,0,4.8,0,9.6-.1,14.4a6,6,0,0,1-1,3.2c-6.5,9.6-13.2,19.1-19.8,28.6-3,4.3-6,8.7-9.1,13-1.8,2.4-1.6,3.6,1.3,4.4a33.42,33.42,0,0,0,6.1,1.2,278,278,0,0,0,36.6,1.7c12.1-.1,24.2-.3,36.2-2.1a35,35,0,0,0,5.5-1.5C765.8,221.89,766,220.79,765.2,219.59Zm-1.6,2.5a58.18,58.18,0,0,1-6.1,1.6c-16.3,2-32.7,2.1-49.1,1.7-8.4-.2-16.8-1.4-25.2-2.2a15.57,15.57,0,0,1-3.5-1.2,1.38,1.38,0,0,1,.1-.6,6,6,0,0,1,2.1-.7c5-.7,10-1.5,15.1-1.9a339.9,339.9,0,0,1,42.7-.4c7.1.4,14.2,1.2,21.3,2a11.07,11.07,0,0,1,2.5,1c.1.1.1.4.1.7Z" transform="translate(-55.4 -25.09)"/><path class="cls-1" d="M714,33.29c-.2,2.2.9,3.5,2.9,4.2,1.1.4,2.3.6,3.6,1v.2c.3-.1.6-.1.9-.2h.1v-.2a14.69,14.69,0,0,0,2.2-.4c3.2-.8,4.2-2.1,4.2-5.3v-2.9a3.76,3.76,0,0,0-2.1-3.4,9.85,9.85,0,0,0-7.5-.8c-3.9,1-4.3,2.6-4.1,5.3A23.39,23.39,0,0,0,714,33.29Z" transform="translate(-55.4 -25.09)"/><rect class="cls-1" x="664.3" y="13.1" width="2.4" height="108.2"/><path id="_Path_20" data-name=" Path 20" class="cls-7" d="M339.2,482.49" transform="translate(-55.4 -25.09)"/><path id="_Path_21" data-name=" Path 21" class="cls-8" d="M218.19,440.64" transform="translate(-55.4 -25.09)"/><path id="_Path_22" data-name=" Path 22" class="cls-7" d="M420.4,482.49" transform="translate(-55.4 -25.09)"/><path id="_Path_23" data-name=" Path 23" class="cls-7" d="M368.7,482.49" transform="translate(-55.4 -25.09)"/><path id="_Path_24" data-name=" Path 24" class="cls-9" d="M381,470.69" transform="translate(-55.4 -25.09)"/><path id="_Path_25" data-name=" Path 25" class="cls-9" d="M317.2,470.69" transform="translate(-55.4 -25.09)"/><path id="_Path_26" data-name=" Path 26" class="cls-9" d="M374.7,496.29" transform="translate(-55.4 -25.09)"/><path id="_Path_27" data-name=" Path 27" class="cls-9" d="M323.5,496.29" transform="translate(-55.4 -25.09)"/><path id="_Path_28" data-name=" Path 28" class="cls-9" d="M374.7,503.89" transform="translate(-55.4 -25.09)"/><path id="_Path_29" data-name=" Path 29" class="cls-9" d="M323.5,503.89" transform="translate(-55.4 -25.09)"/><path id="_Path_30" data-name=" Path 30" class="cls-9" d="M334.9,462.79" transform="translate(-55.4 -25.09)"/><path id="_Path_31" data-name=" Path 31" class="cls-9" d="M339,529.89" transform="translate(-55.4 -25.09)"/><path id="_Path_32" data-name=" Path 32" class="cls-9" d="M363.3,462.79" transform="translate(-55.4 -25.09)"/><path id="_Path_33" data-name=" Path 33" class="cls-9" d="M359.2,529.89" transform="translate(-55.4 -25.09)"/><ellipse class="cls-10" cx="652.15" cy="517.6" rx="72.95" ry="4.7"/><polygon class="cls-11" points="398.9 365.8 392.5 365.9 392.5 366.9 398.9 366.9 398.9 365.8"/><path class="cls-12" d="M518.7,411.49l-35-24.8-72.4,1.6-2.4-.5-.7-86-15,6.1-.2,76.3,1.9,8.3v1l-.3.6-1,1.5,3,4.7,4,6.2,5.9,5.3s6.1,1.3,9,1.1,17.4.6,17.4.6" transform="translate(-55.4 -25.09)"/><path class="cls-13" d="M663.4,515.19a41.91,41.91,0,0,0,7.4-7.3c8.1-10.3,11.8-23.3,15.8-35.6,4.6-13.9,9-27.9,10.8-42.4A184.22,184.22,0,0,0,680,327.09s-21.1-21.1-57.6-31.7c-40.6-11.8-84.6-21.2-127-16.9A222.53,222.53,0,0,0,387,320c-30.1,22-54.6,50.3-63.5,87.9-12.2,51.3,14.8,106.5,63.7,124.4,15.3,5.6,31.7,7.6,48,9.1,42.4,3.9,85.3,4.7,127.7,0,19.2-2.1,37.5-6.2,56.3-10.4C634.4,527.59,651,524.89,663.4,515.19Z" transform="translate(-55.4 -25.09)"/><path class="cls-14" d="M654.4,423.59c-6.4,4.9-8.7,13.9-12.5,20.9a206.43,206.43,0,0,1-15.9,24.7c-3.6,4.8-9.6,9.9-14.8,6.9-2.7-1.6-3.9-4.8-4.4-7.9-1.3-8,.8-16.2.7-24.4a4.75,4.75,0,0,0-.9-3.3c-1.6-1.7-4.4-.2-6.2,1.3-17.4,14.4-33.1,28.9-54.5,37.1-20.4,7.8-42,11.5-63.1,16.9-31.7,8.3-73.6,14.8-101.8,31.6,73.1,13.3,158.8,20.4,240.9.9,15.8-3.8,23.8-7.7,37.9-15.9,14.5-8.5,22.2-23.5,27.1-39.2a143.9,143.9,0,0,0,6.7-39.1c.2-8,1.6-31-6.2-35.9a1.7,1.7,0,0,0-1,1" transform="translate(-55.4 -25.09)"/><path class="cls-15" d="M407.7,159" transform="translate(-55.4 -25.09)"/><path class="cls-16" d="M594,289c1-1.5,16.6,2.7,18.1,3a157.57,157.57,0,0,1,39.7,14.4c12,6.4,32.2,13.8,39.6,25.5,7.7,12.2,12.6,26.5,12.7,40.8.3,31.5-3.2,66-16.4,94.8-22.1,48.3-71,64.1-120.5,68.5-3.2.3-6.4.5-9.6.7-44.9,2.7-182-9.7-182-9.7l-8.7-61.9,97.2-19.5,78.9-79.5Z" transform="translate(-55.4 -25.09)"/><path class="cls-17" d="M635.3,323.49c-7.4,6.6-48.1,57-52.5,67.5s58-71.4,52.5-67.5" transform="translate(-55.4 -25.09)"/><path class="cls-18" d="M551.1,396.79c-33.4,10.7-52,61.4-61.2,68s100.3,89.6,169.8,3.7c26.2-32.4,52.2-72.3,41.7-117.3-2.9-12.3-8.6-23.8-17.4-32.9-22.2-22.8-65.5-33.4-95.6-38-116.6-17.6-64.5,8.3-64.5,8.3" transform="translate(-55.4 -25.09)"/><path class="cls-19" d="M288,503.89l32.6-19.2,79.1-49.5s6.6-14,10.9-15.4,12.1-10,12.1-10l29.6-2.9s15.7,6.1,23.5,5.5,59.2,1.8,59.2,1.8,15.7,1.8,2.4,26.2-65.2,28.1-72.5,28.7-30.2.7-38.6,9.4-84.5,39.8-84.5,39.8l-40.6,16.3Z" transform="translate(-55.4 -25.09)"/><polyline class="cls-12" points="354.5 378.9 337.2 348.3 339.5 365.5 339.5 370.4 348.3 384.2 352.6 387"/><path class="cls-20" d="M235.08,567.79c0-6.3,49.15-11.92,109.81-12.61s109.91,4,109.91,10.28S405.65,577.39,345,578.07,235.19,574.1,235.08,567.79Z" transform="translate(-55.4 -25.09)"/><rect class="cls-21" x="354.56" y="373.08" width="13.7" height="5.8"/><path class="cls-22" d="M557.6,385.79s15.1-18.2,11-39.4" transform="translate(-55.4 -25.09)"/><path class="cls-23" d="M553.3,269.29c12.4,4.8,27.2,6.7,37.5,15.1,2.8,2.3,5.5,4.8,6.8,8.1,1.4,3.6.9,7.6.3,11.3-2.8,18.9-21.3,20.5-25.3,39.2-3.1,14.7-2.8,39.7-8.4,53.6-5.4,13.4-10.8,30.8-23.5,30.8-9.6,0-16.9-12.7-26.5-13.5" transform="translate(-55.4 -25.09)"/><path class="cls-24" d="M437.2,366.09" transform="translate(-55.4 -25.09)"/><path class="cls-25" d="M527.9,275.39" transform="translate(-55.4 -25.09)"/><path class="cls-25" d="M557.6,265.29" transform="translate(-55.4 -25.09)"/><path class="cls-26" d="M557.6,385.79" transform="translate(-55.4 -25.09)"/><path class="cls-23" d="M557,288.59,529.2,295l-4.4-2.6-6-3.7,5.6-15.7s-25.4-2.3-31.4,7.4c-3.8,6.2-12,31.6-16.8,64.2-2.2,14.9-15.8,29.7-15.2,30.6,1,1.5.4,4.6.4,4.6l7.4,4.5,4,2.3,1.6.3,9.7,3.8s8.2,5.2,14.1,3.1l13.7.9" transform="translate(-55.4 -25.09)"/><path class="cls-27" d="M371,524.59l.6-29.9L364.5,426l39.2,4.7,29-20-29-28.8s-50.7-7.2-53.7-7.2-38-6.6-33.8,30.2,11.7,81.8,11.7,81.8l8.2,37.9Z" transform="translate(-55.4 -25.09)"/><path class="cls-28" d="M567.4,334.89" transform="translate(-55.4 -25.09)"/><path class="cls-12" d="M503.7,396.09c0,.2-.4.5,0,.7s.3-.2.3-.4C503.8,396.29,503.8,396.19,503.7,396.09Z" transform="translate(-55.4 -25.09)"/><path class="cls-12" d="M514.3,400.79c0,.4.2.5.6.5C514.8,400.89,514.7,400.69,514.3,400.79Z" transform="translate(-55.4 -25.09)"/><path class="cls-21" d="M481.8,408.39h-60c-.5,0-.9.1-1,.7s.4.6.8.8a4.13,4.13,0,0,0,1.6.1h28.6a45.64,45.64,0,0,1,6.3.2h.7c2.4-.5,4.8-.1,7.1-.2h1.7a4.63,4.63,0,0,0,1.1.2h2.9a6.71,6.71,0,0,1,2.4-.2,37.51,37.51,0,0,1,6.7.3C482.3,410.19,482.5,409.79,481.8,408.39Z" transform="translate(-55.4 -25.09)"/><path class="cls-11" d="M397.1,346.69a46.12,46.12,0,0,0,0,9.1c.1.9.1,2.4.6,2.4,1,0,.5-1.3.6-2,.2-2.1.2-4.2.2-6.3v-4.2c0-.5-.1-1.1-.7-1.1-.8,0-.6.7-.6,1.1C397,346,397.1,346.29,397.1,346.69Z" transform="translate(-55.4 -25.09)"/><path class="cls-11" d="M513.5,410.59h7.1c-.1-.7-.6-.5-1.1-.5h-9.4c-.3,0-.9-.2-.9.3s.5.4,1,.3A12.58,12.58,0,0,1,513.5,410.59Z" transform="translate(-55.4 -25.09)"/><path class="cls-11" d="M467.6,399.09c-2.2,0-4.3-.6-6.5,0a5,5,0,0,0-1.2.3v.5a5,5,0,0,0,2.4-.2,17.58,17.58,0,0,1,2.5-.3,8.51,8.51,0,0,1,2.2.1C467.4,399.59,467.5,399.39,467.6,399.09Z" transform="translate(-55.4 -25.09)"/><path class="cls-11" d="M445.7,402.49h-.2a.9.9,0,0,1-1,.81H440.6c-.4,0-.9-.1-1.2.4,2.3,0,4.6.5,6.8-.1v-.7C446,402.59,445.9,402.49,445.7,402.49Z" transform="translate(-55.4 -25.09)"/><path class="cls-11" d="M437.2,403.49a.47.47,0,0,0-.43-.5h-.07c-2.1.6-4.3,0-6.4.6C432.6,403.59,434.9,404.09,437.2,403.49Z" transform="translate(-55.4 -25.09)"/><path class="cls-11" d="M463.3,402.69c-.2.7-.8.5-1.3.5h-4.6c0,.7.5.5.7.5h4.6c.8,0,1.1-.2,1-1Z" transform="translate(-55.4 -25.09)"/><path class="cls-21" d="M464.8,399.39c-.8-.2-1.6.3-2.5.3a4.79,4.79,0,0,0,3.5.8C465.6,400.09,464.8,400.09,464.8,399.39Z" transform="translate(-55.4 -25.09)"/><path class="cls-21" d="M494.8,407.79a.63.63,0,0,0,.6-.67h0c0-.8-.8-.6-1.2-.7s-.7.3-.7.8C493.7,408,494.7,406.89,494.8,407.79Z" transform="translate(-55.4 -25.09)"/><path class="cls-21" d="M466.5,402.39c.5,1,1.7.5,2.4,1,.2.1.3-.3.3-.5s-.2-.8-.7-.6a5.19,5.19,0,0,1-1.8.1.13.13,0,0,0-.18,0Z" transform="translate(-55.4 -25.09)"/><path class="cls-11" d="M427.9,403.39c-1.3-.4-2.4-.1-3.7-.3A3.9,3.9,0,0,0,427.9,403.39Z" transform="translate(-55.4 -25.09)"/><path class="cls-11" d="M473.9,403.19h-3.3A2.7,2.7,0,0,0,473.9,403.19Z" transform="translate(-55.4 -25.09)"/><path class="cls-21" d="M517.9,406.89c.1.7.9.3,1.3.6s.3-.3.4-.5c.1-.8-.5-.5-.9-.5S517.9,406.19,517.9,406.89Z" transform="translate(-55.4 -25.09)"/><path class="cls-21" d="M463.3,402.69h.5v-.1c-.1-.7-.7-1.1-1.3-1.5,0,0-.3.1-.3.2C462,402.19,462.9,402.29,463.3,402.69Z" transform="translate(-55.4 -25.09)"/><path class="cls-11" d="M468.7,410.29a4.45,4.45,0,0,0-1.1-.2c0,.3-.1.7.3.8a.69.69,0,0,0,.8-.58h0Z" transform="translate(-55.4 -25.09)"/><path class="cls-21" d="M446.2,402.69v.7c.4-.2.7-.5.4-.9C446.5,402.39,446.3,402.59,446.2,402.69Z" transform="translate(-55.4 -25.09)"/><path class="cls-21" d="M500.1,396.39c-.1.1-.3.1-.3.2a.32.32,0,0,0,.3.3c.2,0,.2-.1.3-.2C500.3,396.59,500.1,396.49,500.1,396.39Z" transform="translate(-55.4 -25.09)"/><path class="cls-21" d="M487.3,393.89c.2,0,.5.1.7-.2a.22.22,0,0,0-.2-.2c-.4-.1-.5.1-.5.4Z" transform="translate(-55.4 -25.09)"/><path class="cls-21" d="M464.9,401.59h.5c-.1-.2-.1-.4-.2-.4C464.9,401.09,464.9,401.39,464.9,401.59Z" transform="translate(-55.4 -25.09)"/><path class="cls-11" d="M493.1,405.39h0c.1.1.1,0,.1,0S493.2,405.29,493.1,405.39Z" transform="translate(-55.4 -25.09)"/><path class="cls-21" d="M429.6,403.49c0,.1.1.2.1.3l.1-.1c-.1,0-.1-.1-.2-.2Z" transform="translate(-55.4 -25.09)"/><path class="cls-11" d="M395.1,393.59c.1.1-.1.5.3.3Z" transform="translate(-55.4 -25.09)"/><path class="cls-11" d="M394.9,393.39l.3.3C395.1,393.49,395,393.49,394.9,393.39Z" transform="translate(-55.4 -25.09)"/><path class="cls-12" d="M466.1,395.49a.35.35,0,0,0,.1.2c.1,0,.2,0,.2-.1s-.1-.1-.1-.2S466.1,395.39,466.1,395.49Z" transform="translate(-55.4 -25.09)"/><path class="cls-12" d="M437.9,399.69h2.5c.3,0,.6,0,.7-.3s-.1-.4-.3-.5c-1.3-1-2.6-2-3.8-3-2-1.6-3.9-3.2-5.9-4.8-.7-.6-1.5-1.1-2.2-1.7-.4-.3-.9-.6-1-1.1-.2-1.1-1.1-.9-1.7-.8a2,2,0,0,1-1.8-.2,3.37,3.37,0,0,0-2.4-.1c-.7.1-.6.8-.1,1.1,3.4,2.6,6.3,5.9,9.8,8.4a6.27,6.27,0,0,1,.9.8C435.1,400.09,434.2,399.59,437.9,399.69Z" transform="translate(-55.4 -25.09)"/><path class="cls-12" d="M438.1,402.69c.1-.7.8-.2,1.2-.3,1.7,0,3.5-.2,5.2-.2-.7-1-4.5-4.2-5.9-3.9a36.63,36.63,0,0,1-4.8-.1c-.4,0,1.6,2.2,2.1,2.6l.7.7C436.9,401.69,437.7,402.49,438.1,402.69Z" transform="translate(-55.4 -25.09)"/><path class="cls-12" d="M420.5,399.29h3.2A11.43,11.43,0,0,0,420.5,399.29Z" transform="translate(-55.4 -25.09)"/><path class="cls-21" d="M452.6,391.19c.1-.1.3-.1.3-.2a.32.32,0,0,0-.3-.3.23.23,0,0,0-.2.2C452.4,391,452.5,391.09,452.6,391.19Z" transform="translate(-55.4 -25.09)"/><polygon class="cls-12" points="461.4 378.5 433.7 366.2 425.7 367.2 406.5 369.2 419 377.5 424 379.7 425.7 384.6 452.9 387.5 465.2 386.8 464.9 379.7 461.4 378.5"/><polygon class="cls-11" points="412.2 373.8 404.2 373.9 404.2 374.8 412.2 374.8 412.2 373.8"/><polygon class="cls-11" points="408.4 377.6 400.3 377.7 400.3 378.7 408.4 378.7 408.4 377.6"/><polygon class="cls-11" points="396.5 377.6 388.5 377.7 388.5 378.7 396.5 378.7 396.5 377.6"/><polygon class="cls-11" points="390.2 377.6 382.1 377.7 382.1 378.7 390.2 378.7 390.2 377.6"/><polygon class="cls-11" points="397.6 364.5 391.2 364.6 391.2 365.5 397.6 365.5 397.6 364.5"/><polygon class="cls-11" points="394.5 367.9 388.1 368 388.1 368.9 394.5 368.9 394.5 367.9"/><polygon class="cls-11" points="401.4 372.6 395.1 372.7 395.1 373.7 401.4 373.7 401.4 372.6"/><rect class="cls-12" x="355.93" y="361.38" width="40.2" height="1.8"/><rect class="cls-12" x="354.32" y="372.63" width="13.9" height="7.2"/><rect class="cls-12" x="352.64" y="348.05" width="1.9" height="12.7"/><polygon class="cls-21" points="468.1 380 427.7 361.1 427.4 362.1 449.4 372.5 464.9 379.7 468.1 380"/><polyline class="cls-21" points="427.7 361.1 398.1 361.3 395.3 361.4 396.1 361.5 427.9 362.3 427.7 361.1"/><polygon class="cls-29" points="444 292.1 435.6 321.4 434.2 321.9 444 292.1"/><path class="cls-12" d="M436.3,399.69h3.1c-1-.6-2.1-1.4-2.9-1.4C436.2,398.29,436.3,399,436.3,399.69Z" transform="translate(-55.4 -25.09)"/><path class="cls-12" d="M523.5,405.09c0-.6-.7-.5-1.2-.6-1-1.2-2.7-1.3-4-2.1a7.76,7.76,0,0,0-3.4-1.2c-.4,0-.6-.1-.6-.5-2.1-.9-4.1-1.8-6.2-2.7a21.61,21.61,0,0,0-4.2-1.7c0,.2-.1.6-.3.4-.4-.2,0-.4,0-.7a12.5,12.5,0,0,1-4.8-1.9c-4.8-3.1-10.1-5-15.2-7.5a2.18,2.18,0,0,0-.7-.3c-3.4.1-6.8-.3-10.2,0a17,17,0,0,1-3.9,0,34.37,34.37,0,0,0-7.1-.1c-3.5.3-6.9.1-10.4.2H409.9c.2-2.8-.6-2.8-.2-5.6.1-7.6.2-5,.2-6v-71.7c0-1,.3-2.4-.7-2.8-1.2-.6-2.7,0-3.7.8a10.41,10.41,0,0,1-4,1.9c-2.5.8-4.9,2-7.3,3-1.4.6-1.8,2.1-1.8,3.6v59.5c0,2,.2,3.9.3,5.8a3,3,0,0,0-.2,1.6c0,3.2.1,6.5,0,9.7a7.72,7.72,0,0,0,1.6,5.3,3.6,3.6,0,0,1,.9,1.7h0c-1.7.5-2.1,1.8-1.1,3.4,1.6,2.6,3.5,5.1,5,7.8a25.7,25.7,0,0,0,5.8,6.5c1.5,1.3,3.5,1.5,5.4,2,3.4.9,6.9.5,10.3.6s6.6.2,10,.2c24,0,48.1.1,72.1,0,6.2,0,12.3-.1,18.5-.6,1.7-.1,1.7-1.1,2.1-2.1l-.2-.2a.22.22,0,0,1,.2.2C524.3,409.29,523.4,407.09,523.5,405.09Zm-128.1-11.2c-.4.3-.2-.1-.3-.3h0l.3.3a.54.54,0,0,1,.4.2h0A.54.54,0,0,0,395.4,393.89Zm2.3-35.8c-.5,0-.6-1.5-.6-2.4-.2-3,.6-6,0-9.1v-1.1c0-.4-.2-1.1.6-1.1s.7.5.7,1.1v4.2c0,2.1,0,4.2-.2,6.3C398.2,356.79,398.6,358.09,397.7,358.09Zm68.6,37.3a.35.35,0,0,0,.1.2c0,.1-.1.1-.2.1a.35.35,0,0,0-.1-.2C466.1,395.39,466.2,395.39,466.3,395.39Zm-13.7-4.7c.2,0,.4.1.3.3s-.2.1-.3.2c-.1-.1-.2-.2-.2-.3s.2-.2.2-.2Zm1.2,12.1c.1,0,.2-.1.4-.1-.1-.1-.2-.3-.3-.4.1.1.2.3.3.4a3.56,3.56,0,0,0,.8.5c-.1.2-.9-.2-1.2-.4Zm8.9,1h-4.6c-.3,0-.7.2-.7-.5H462c.5,0,1,.2,1.3-.5-.4-.4-1.3-.5-1.1-1.4,0-.1.2-.2.3-.2a2,2,0,0,1,1.3,1.5v.1c0,.7-.3,1-1.1,1Zm1.4-1.5a.38.38,0,0,1,.34-.4h.06C464.5,402.09,464.5,402.39,464.1,402.29Zm3-2.8a5.62,5.62,0,0,0-2.2-.1c-.1.7.7.7,1,1.1a5.39,5.39,0,0,1-3.5-.8,5,5,0,0,1-2.4.2h0v-.5h0a2.8,2.8,0,0,1,1.2-.3c2.2.1,4.3,0,6.5,0-.2.3-.3.5-.6.4Zm.5-.4c-.3-.8-1.1-1.1-1.7-1.5.6.4,1.4.7,1.7,1.5Zm1.3,4.3a2.51,2.51,0,0,0-.3-1.2c.4,0,.5.4.6.7s-.3.7-.3.5Zm5-.2a2.7,2.7,0,0,1-3.3,0h3.3a1.53,1.53,0,0,1,.7.2A1.88,1.88,0,0,0,473.9,403.19Zm12.3-9.6a2,2,0,0,0,1.1.3A1.73,1.73,0,0,1,486.2,393.59Zm1.1.3c0-.3.1-.5.5-.5.1,0,.2.2.2.2-.2.4-.5.3-.7.3Zm5.8,11.6h0v-.2a.09.09,0,0,1,.1.08v0a.1.1,0,0,0-.1.08v0Zm1.7,2.3c-.1-.8-1.1.2-1.3-.7a.64.64,0,0,1,.43-.78.62.62,0,0,1,.27,0c.4.1,1.2-.1,1.2.7,0,.4-.1.7-.6.8Zm5.2-10.9a.28.28,0,0,1-.3-.23h0v-.06c0-.1.2-.1.3-.2.1.1.2.2.2.3A.22.22,0,0,1,500,396.89Zm18.6,9.5c.4,0,1-.3.9.5,0,.3-.1.7-.4.5s-1.2.1-1.3-.6c.1-.6.4-.4.8-.4Zm2,4.2h-7.1a11.84,11.84,0,0,0-3.2.1c-.4.1-.9.2-1-.3s.6-.3.9-.3h9.4c.4,0,.9-.2,1,.5a1.41,1.41,0,0,0,1.1.3,1.41,1.41,0,0,1-1.1-.3Z" transform="translate(-55.4 -25.09)"/><polygon class="cls-11" points="391.8 372.1 385.5 372.2 385.5 373.2 391.8 373.2 391.8 372.1"/><polygon class="cls-11" points="387.3 375.2 380.9 375.3 380.9 376.2 387.3 376.2 387.3 375.2"/><polyline class="cls-11" points="373.6 370.6 367.3 370.7 367.3 371.6"/><polygon class="cls-11" points="382.7 371.1 376.4 371.2 376.4 372.1 382.7 372.1 382.7 371.1"/><polygon class="cls-11" points="383.7 366.1 378.4 366.2 378.4 367.1 383.7 367.1 383.7 366.1"/><polygon class="cls-11" points="377.8 374.3 371.4 374.4 371.4 375.3 377.8 375.3 377.8 374.3"/><polygon class="cls-11" points="391.8 368.3 385.4 368.4 385.4 369.3 391.8 369.3 391.8 368.3"/><polygon class="cls-11" points="377.8 368.3 371.4 368.4 371.4 369.3 377.8 369.3 377.8 368.3"/><polygon class="cls-11" points="372.8 365.3 366.4 365.4 366.4 366.3 372.8 366.3 372.8 365.3"/><path class="cls-30" d="M455.8,398.39c1.4-1.1,8.8-4.5,9.7-5.2s10.8-3.6,12.7-3.8,11.1.7,16.5,1.4a19.06,19.06,0,0,0,9.4-1.1s8.6.7,14.8.7c0,.6,1.7,2.3,1.7,2.9.1,3.7-.2,3.6,0,7.3C512.7,400,506,399,506,399c-3.8,3-14.4,3-18.1,2.5a74.75,74.75,0,0,0-9.7-.3,43.1,43.1,0,0,1-5.7,3.5c-3,1.5-4.9.8-4.4-.4s5.9-5.2,6.5-6-4.1.8-4.4.9-8.9,5.6-8.9,5.6c-4.2-.1-4-1.2-4-1.2-3.7.6-4.4-.8-4.6-1.5S454.3,399.49,455.8,398.39Z" transform="translate(-55.4 -25.09)"/><path class="cls-31" d="M482.79,563.19c0,1.8,25.1,3.3,56.1,3.3S595,565,595,563.19s-25.11-3.3-56.11-3.3C463.29,559.89,482.79,561.39,482.79,563.19Z" transform="translate(-55.4 -25.09)"/><path class="cls-32" d="M572.4,520.89c1.2-.3,2.3-.6,3.4-.8,2.6-.4,5,0,6.8,2a9.43,9.43,0,0,1,2.1,4.8c1.1,5.9-.7,10.8-4.8,15.1a53.77,53.77,0,0,1-9.6,7.6,4.22,4.22,0,0,0-1.9,2.6,80.23,80.23,0,0,1-3.9,11.5,1.1,1.1,0,0,1-.9.7,41.29,41.29,0,0,1-21.2.2c-1.7-.5-1.7-.5-2.3-2.1a114.78,114.78,0,0,1-6-23.3,123.25,123.25,0,0,1-1.4-21.8c0-1.4.1-1.4,1.4-1.9a29.62,29.62,0,0,1,6.6-1.2,147.7,147.7,0,0,1,17.6-.3,54,54,0,0,1,11.2,1.2,21.78,21.78,0,0,1,2.4.8c.4.1.5.4.5.8Zm-2.3,24.7c.2,0,.2-.1.3-.1,6-3.3,10-8,10.4-15.2a10.3,10.3,0,0,0-.6-4.6,3.61,3.61,0,0,0-2.8-2.5,4.78,4.78,0,0,0-4.9,2.7v.4c0,.5-.1,1.1-.1,1.6A112.77,112.77,0,0,1,571,541C570.7,542.49,570.4,544,570.1,545.59Z" transform="translate(-55.4 -25.09)"/><path class="cls-33" d="M558.9,486.69a16.43,16.43,0,0,1-2.8,12.2c-1,1.5-1.9,2.9-2.9,4.4a21.47,21.47,0,0,0-3,8.1c-.1.5-.2.9-.3,1.4h-.1c-.1-.7-.1-1.4-.2-2.2a16.42,16.42,0,0,1,2.8-9.7c.8-1.3,1.6-2.5,2.5-3.7a23.66,23.66,0,0,0,3.7-9.5" transform="translate(-55.4 -25.09)"/><path class="cls-34" d="M565.3,484.49a16.43,16.43,0,0,1-2.8,12.2c-1,1.5-1.9,2.9-2.9,4.4a21.47,21.47,0,0,0-3,8.1c-.1.5-.2.9-.3,1.4h-.1c-.1-.7-.1-1.4-.2-2.2a16.42,16.42,0,0,1,2.8-9.7c.8-1.3,1.6-2.5,2.5-3.7a23.51,23.51,0,0,0,3.7-9.5" transform="translate(-55.4 -25.09)"/><path class="cls-35" d="M546.4,508.39c0-.4-.1-.8-.1-1.1a12.56,12.56,0,0,1,2.3-8c.8-1.3,1.7-2.5,2.4-3.8a16.86,16.86,0,0,0,1.8-5.4c0-.2.1-.3.1-.5h.1c0,.5.1,1,.1,1.6a12.55,12.55,0,0,1-2.2,7.3c-.8,1.2-1.6,2.4-2.3,3.6a15.54,15.54,0,0,0-2,5.6,3.31,3.31,0,0,1-.2.7Z" transform="translate(-55.4 -25.09)"/><polygon class="cls-36" points="643 486.1 648.9 518.7 684.4 518.7 689.5 486.1 643 486.1"/><path class="cls-37" d="M697.5,504.59s-5.2-6.3-3.2-21.5a24.17,24.17,0,0,1,5.6,7.9s-1.9-16.6.7-20.2c0,0,1.1,4.1,10.4,17.2,0,0,2.4-22.4,5.6-25.7s10.9,24,10.9,24,5.9-17.3,6.6-20,6.9,7.4,5.7,25.2c0,0,5.9-9.1,4.6-14.9,0,0,10.2,9.7,2,28.1l-.4.9Z" transform="translate(-55.4 -25.09)"/><path class="cls-38" d="M715.5,505s17.2-28.4,18.1-40c0,0,9.2.3,6.4,40.4Z" transform="translate(-55.4 -25.09)"/><path class="cls-39" d="M704.1,504.79s-9.6-16.7-4-34.1c0,0,3.4,10.9,10.3,16.5,7.1,5.8,9.9,10.4,9.9,10.4s-.3,5.1-4.4,7.4Z" transform="translate(-55.4 -25.09)"/><rect class="cls-40" x="638.2" y="479.3" width="55.7" height="7.1"/><path class="cls-1" d="M81.76,351.85c5.45,0,14.35.5,14.35.5s3,11.38,5.45,21.77-2,33.73,35.7,37.19a15.52,15.52,0,0,1,1.65,2.06v3.05H135.2l-45,85.1v5.78H88.36v2.47h5.77v-2.64H92.32l.16-4.95,55.34-55.49,7.58,65.39.17,8.41h-2.23v2.23h6.6v-2.06h-1.81v-8.25L166.78,492v7.42h-2.22v2.06h6.6v-2.06h-1.82l-.58-9.65,11.14-46.26,63.58,61.27,1,4.46h-2.15v3h5.77v-3.14h-2.8l-.41-5.77-53.11-93.68c13.94-.66,31.34-2,38.92-4.37,12.37-4,9.9-13.86,8.91-17.32l-7.92-30.76s2-11.38-13.36-11.38-40.16-1-40.16-1-12.36.5-28.78-11.87-29.19-16.83-42.63-16.33S88,331,86,337.92,83,348.31,80,348.8C76.82,349.38,76.32,351.85,81.76,351.85Zm99.7,91.95,15.59-19.13,42.8,74.05Zm-5.52-.82-12.12-22.19v-5.94l1.4-1.4v-1.73a20.88,20.88,0,0,1,7.17-1.32c2.56,0,8.91-.08,16.58-.41l6.84,13.36-16.08,19.71h-3.79Zm-6-.42-5.36.42L164,430.61Zm-5.53-15.17.25-3.3L174.12,443h-1.81Zm1.24,20h11.55c-.58.57-10.07,38.84-10.07,38.84Zm0,40.49-5.94-19.55.66-21.36,3.3.42Zm-4.54-44.62,1-16.9,1,16.9Zm-2.63,63.5,1.23-33.15,5.53,16.49ZM155.57,443s3.71-12.79,3.71-13.36V443ZM150,447.1h7.59s-1.57,50.63-1.32,57.72l.08.83c-.08,0-.08-.33-.08-.83Zm-16.9-21.2,13.36,18.89L96,496.08Zm10.47-8.24v-4a10.9,10.9,0,0,1,9.49-3.38l5.44.49a8.16,8.16,0,0,0,1.15.66v12.95l-5.93,18.31h-4.71l-14.67-18.64,2.06-6.35h7.17ZM89.68,348.88s11.38.42,25.81,1.49c13.11,1,14.85,9.89,14.85,9.89s4.94,14.35,12.37,30.27,61.43,9.4,61.43,9.4-29.77,7-47.09,3.46C138.66,399.68,137.26,389,137.26,389s-8-21.93-9.4-25.73-3.79-9.4-8.66-10.72C113.93,351.19,89.68,348.88,89.68,348.88Z" transform="translate(-55.4 -25.09)"/><polygon class="cls-41" points="469.6 251.3 472.5 235.5 499.1 230.1 497.1 253 492.1 259.3 472.5 269.8 469.5 267.2 462.8 260.5 469.6 251.3"/><path class="cls-23" d="M586.5,281.19c14.5,8.3,12.7,19.5,12,25.3-3.2,27.9-10.6,55.1-17.1,82.4-2.2,9.3-8,13.7-17.5,14.5-12.8,1.1-25.5,2.4-38.4,4l1-15.6,21-12.2s5.7.1,5.4-1,1.5-4.2,1.5-4.2,2.3-3.4,2.3-4.6.3-4.2,1-5.1a22.58,22.58,0,0,0,2-7.3c0-1.6,1-4.9,2.2-6s4.6-14.4,4.6-14.4-2.8,2-6.8,11.8" transform="translate(-55.4 -25.09)"/><path class="cls-42" d="M566.6,230.19c.8-2.2,1.2-3.5,1.2-3.5s1.1-10.2,1-16.1-24.8.6-28.5-1.2-19.1,5-19.1,5c-.4.2-1,1.6-1.2,2.1a18,18,0,0,0-1.1,2.3c-1.4,3.3-1.4,8.5-1.2,12.1.2,2.6-.2,3.4-.1,6,.1,1.9.4,3.9.6,5.8.3,3.1.7,8.3,2.1,11.1s.9,3.6,1.7,6.6c.6,2,3.3,9,6.9,7.8s12.7,1.4,13.7-.1,12.2-8.5,13.5-11.2c1.7-3.6,3.6-8,5.3-12.4v.4s1.1.4,1.4,0,6.4-8.7,4.8-13A5.73,5.73,0,0,0,566.6,230.19Z" transform="translate(-55.4 -25.09)"/><path class="cls-43" d="M554.9,190.09c5.1,1,10.2,3.2,13.3,7.5,2.6,3.6,3.3,8.8.7,12.4a5.17,5.17,0,0,1,2.8,3,12,12,0,0,1,.6,4.2c-.1,5.5-3.1,12.7-4.5,18-.4-1.9-.4-5.2-2.3-5.6a5.3,5.3,0,0,0-5.2,2c-.6.8-1.1,1.9-2.1,2.2a3.8,3.8,0,0,1-2.1-.3,13.09,13.09,0,0,0-6.8.4,1.9,1.9,0,0,1,.24-2.67,2.12,2.12,0,0,1,.56-.33c1-.4,4.8.1,5-1.3a1.21,1.21,0,0,0-.4-.8,16.7,16.7,0,0,0-3.6-2.3,1.93,1.93,0,0,1-.8-.8,1.39,1.39,0,0,1,0-.9c.4-2.7.8-6.3,3.2-8,1.5-1.1,3.4-1.4,5-2.1a81.83,81.83,0,0,1,8.5-3.4c-4.5,1.4-8.9,2.7-13.4,4.1-2.2.7-4.5,1.4-6.7,2.1a23.77,23.77,0,0,1-2.9.9c-1,.2-2-.3-3-.3-2.1-.1-3.8,1-5.8,1.7-.6.2-2.1,1-3.4.6-.5-.1.8-1.3,1-1.7a3.19,3.19,0,0,0-1.5-4,5.12,5.12,0,0,0-4.5.2c-.5.2-.9.6-1.4.5s-.9-.8-.5-1.1a9.21,9.21,0,0,0-4.2,5.1,1.51,1.51,0,0,1-.5.9c-1.2.9-2.1-2.8-2.2-3.4a13.2,13.2,0,0,1,.2-5.2c.7-3.2,2.3-6.2,3.4-9.3a3,3,0,0,1-1.3.2c-.1-1.6,2-4,2.9-5.3,7-8.7,19.8-9,30-7.4A10.8,10.8,0,0,1,554.9,190.09Z" transform="translate(-55.4 -25.09)"/><path class="cls-43" d="M560.5,247.19a11.76,11.76,0,0,0,.9-3.6c.2-2-.4-5,2.4-15.1.4-1.6-4.7,5.3-6.4,4.7-.3-.1-.7.3-1,.4-.9.1-1.2,1.7-1.4,2.5a88.09,88.09,0,0,1-3,10.1,16.13,16.13,0,0,1-2.3,4.6,14.1,14.1,0,0,1-2.2,2.1c-1.1,1-2.4,2-3.9,1.6a1.86,1.86,0,0,1-2.26,1.34h-.14a7.65,7.65,0,0,1-1.5-.9c-.2-.2-.6-.4-.7-.6s.1-.5.1-.8-.5-.5-.8-.8-.1-.7-.3-1.1c-.4-1.2-2.1-1.4-3-1.5-1.3-.1-2.3-.1-3.7-.1-1.2,0-2.9-.2-4.1-.3-1,0-5,.1-5.8.8-.6.5-1,2.8-1,3.5-.2,2.1-.7,3.6-.8,5.9,0,1.2.4,4.1.4,5.3.1,2.2,2.3,3.3,4.1,4.5a17.88,17.88,0,0,0,11.5,2.9,29.16,29.16,0,0,0,8.4-1.3,17.16,17.16,0,0,0,6.5-4.2c1.6-1.7,4.1-2.9,5.1-5.1.2-.4-3.4,1.8-3.2,1.4l-2.4,2.1v-.9a2.13,2.13,0,0,1,.3-1.3.85.85,0,0,1,1.15-.24h0l1.2-1.6c.1.3.2.7.3,1-.1-.3.5-1.3.6-1.6a10.51,10.51,0,0,1,1.1-1.7c.1-.1.3-.3.4-.2.3.1.2.5.3.7a.73.73,0,0,0,.7.5,1.21,1.21,0,0,0,.8-.4,4.91,4.91,0,0,0,1.2-2.1,65.52,65.52,0,0,0,2.4-8.7,4.4,4.4,0,0,0,.1-2.8m-18,24.2a6.42,6.42,0,0,1,1.7-2.2,2.55,2.55,0,0,1,1.4-.6.88.88,0,0,1,.7.3Zm5.2-3.4c.5-.6,1-1.3,1.5-1.9l.5.5Z" transform="translate(-55.4 -25.09)"/><path d="M548.9,230.39c.3.1,1.3.2,1.3.5a9.74,9.74,0,0,1-.2,2.9c-.1.7-.1.8-.2,1.4-.3,1.6-.2,4-1,5.5a4.39,4.39,0,0,1-2.5,2.3,13.33,13.33,0,0,1-8.6,0c-2.3-.8-3.6-2.7-4.6-4.8a14.13,14.13,0,0,0-1.3-2.5c-.8-1.1-1.6-.9-2.2.3a30.82,30.82,0,0,0-1.2,3.2,7.17,7.17,0,0,1-9.52,3.45,7.53,7.53,0,0,1-1.38-.85,3.9,3.9,0,0,1-1.1-1.5c-.9-2.9-1.7-5.8-2.6-8.8a16.18,16.18,0,0,1,8.1-.7c2.4.4,4.8,1.1,7.2,1.6a7.08,7.08,0,0,0,2.9,0c2.8-.5,5.6-1.4,8.4-1.8,2.1-.5,6.4-.2,8.5-.2.3,1.8-2,2-3.6,1.5a19.22,19.22,0,0,0-9.2.1c-1.7.4-2.2,1.2-2.3,3-.1,4.7,3.3,7.8,8.3,7.6a15.71,15.71,0,0,0,3.2-.6c1.8-.5,2.4-1.2,2.5-3.1a6.55,6.55,0,0,0,0-1.4A9.64,9.64,0,0,1,548.9,230.39Zm-26.5,11.9c2.4,0,3.6-.7,4.5-2.9a22.65,22.65,0,0,0,1.1-3.8,2.14,2.14,0,0,0-1.43-2.68h-.07a16.91,16.91,0,0,0-8.6-.9,1.8,1.8,0,0,0-1.67,1.92,1.59,1.59,0,0,0,.07.38c.1,1.1.2,2.2.4,3.3C517.3,240.79,519.1,242.29,522.4,242.29Z" transform="translate(-55.4 -25.09)"/><path class="cls-2" d="M525.5,254.59a.08.08,0,0,0,.1-.08v0a6.7,6.7,0,0,1,2,0,23.18,23.18,0,0,1,2.5.2c1.7.2,3.4.3,5.1.5a2.15,2.15,0,0,1,.8.1,1.63,1.63,0,0,1,.7.4.75.75,0,0,1-.1.9,5.46,5.46,0,0,1-1.9,1.8,10.71,10.71,0,0,1-2.7,1.2,6.38,6.38,0,0,1-3.1-.1,5.9,5.9,0,0,1-2.9-2.7C525.9,256.49,525,255,525.5,254.59Z" transform="translate(-55.4 -25.09)"/><path class="cls-43" d="M540.6,271.29l9.3-9.5,7.9-7.8.7,1.5s.9-.1-.1,2.3a21.22,21.22,0,0,1-5.2,7.1l-5.6,4.6-2.3,1.3a3.86,3.86,0,0,1-2.5.6Z" transform="translate(-55.4 -25.09)"/><path class="cls-43" d="M525.2,254.49a6.2,6.2,0,0,1,3.1-.9c1.5.1,3.1.6,4.6.6s3.5-.2,3.2.1l-2.1-1.9h-6.6l-2.7.7v2.1Z" transform="translate(-55.4 -25.09)"/><path class="cls-43" d="M549.7,250.59a12.79,12.79,0,0,0,1.7-2.6c3.2-6.9-1.2,7.9-1.2,7.9l-5.8,3-4.4-4.2c-.1.2,6,.2,9.7-4.1" transform="translate(-55.4 -25.09)"/><path class="cls-43" d="M537.5,251.19s1.1-.5,3.5,4.1-1.8,1.3-1.8,1.3l-1.8-2.7v-2.7Z" transform="translate(-55.4 -25.09)"/><ellipse cx="466.3" cy="212.8" rx="1.8" ry="1.6"/><ellipse cx="485.7" cy="212.8" rx="1.8" ry="1.6"/><path class="cls-44" d="M530.5,236.89s-1.4,10.8-1.2,11.5,3.1,1.4,4.9-.4" transform="translate(-55.4 -25.09)"/><path class="cls-43" d="M534.2,217.29a38.38,38.38,0,0,1-7.6,3.1c-3.8,1,16-10.8,12.5-12.4s-.1,6-10.3,9-4.6-1.3-4.6-1.3l-5.6,1.9,13.2-8.6" transform="translate(-55.4 -25.09)"/><path class="cls-29" d="M572.3,394.89" transform="translate(-55.4 -25.09)"/><path class="cls-29" d="M567.2,393.69" transform="translate(-55.4 -25.09)"/><path class="cls-29" d="M577.8,390.29" transform="translate(-55.4 -25.09)"/><path class="cls-29" d="M572.7,389" transform="translate(-55.4 -25.09)"/><path class="cls-29" d="M570.7,378.69" transform="translate(-55.4 -25.09)"/><path class="cls-29" d="M565.6,377.39" transform="translate(-55.4 -25.09)"/><path class="cls-29" d="M582.4,347.39" transform="translate(-55.4 -25.09)"/><path class="cls-45" d="M553.7,264.59s.9,6-9.2,13.5c-12.8,9.5-18.9,13.1-20.6,14.2,0,0,8.9,10.8,9.3,11.4s10.4-7.7,14.4-11.7a126.25,126.25,0,0,0,10.9-13.2h0C558.4,278.79,556.4,267.69,553.7,264.59Z" transform="translate(-55.4 -25.09)"/><path class="cls-46" d="M525.2,272.89c.2.2.1.8.1,1a6,6,0,0,1-.1,1.4,16,16,0,0,1-.4,2.3c-.2.7-.5,1.4-.7,2.1a23.38,23.38,0,0,0-.6,3.7v1.2c0,1.7.2,5.6,1.3,6.9-1.4,1.3-2.7,2.6-4.1,3.9-1,.9-2,1.9-3,2.8-.5.4-1.1,1.3-1.8,1.4a17.9,17.9,0,0,1-.3-4c.2-4.4.5-6.2.8-9.6a20.19,20.19,0,0,1,3.4-9.5,11.17,11.17,0,0,1,2.3-2.5,6.36,6.36,0,0,1,1.5-.9,2.54,2.54,0,0,1,.8-.2c.2,0,.4-.1.6-.1A.28.28,0,0,0,525.2,272.89Z" transform="translate(-55.4 -25.09)"/><path class="cls-29" d="M568,332s-5.7,39-8.2,39.8-24.9,11.1-24.9,11.1v-2.1l23.2-10.6Z" transform="translate(-55.4 -25.09)"/><path class="cls-29" d="M489.9,366.19l9.9-38.2s-14,36.8-12.2,38.8" transform="translate(-55.4 -25.09)"/><path class="cls-47" d="M529,402.89c.7-9.8-.3-14.9-.3-14.9-2.4.2-4.4-1.2-12.2.9,0,0-.7,17.5,2,17.2s10.6-1.4,10.5-2.2" transform="translate(-55.4 -25.09)"/><polygon class="cls-29" points="484.3 296.3 499.9 300 499.3 302.4 483.6 298.7 484.3 296.3"/><path class="cls-23" d="M536.4,352.19l-3.3-18.1-9.6,26-12.1,30.1,2.9.1,2.2.1v-1.6l.9-.2a36.38,36.38,0,0,1,4-.7" transform="translate(-55.4 -25.09)"/><path class="cls-29" d="M539,324.89l-2.5,10.8s6.7,8.1,15.5,3.8l2.6-11Z" transform="translate(-55.4 -25.09)"/><path class="cls-48" d="M421.5,393.89c1-1.2,6.4-5.8,7-6.6s8.3-5.5,9.9-6.1,9.6-1.9,14.3-2.5,9.9-3.9,9.9-3.9a60.06,60.06,0,0,0,8.1-1.7c.2.5.3,1.1.5,1.6.9,3.1.6,5.2,1.6,8.3a55.18,55.18,0,0,0-11.7,3.6c-4.1,3.8-11.2,4.9-14.4,5.3a10.48,10.48,0,0,1-5.4-.6,33.8,33.8,0,0,1-4,4.2c-2.2,1.9-3.9,1.8-3.8.6s3.8-5.7,4.1-6.6-3.3,1.6-3.5,1.7-6.3,6.8-6.3,6.8c-3.5.9-3.7-.1-3.7-.1-3,1.3-3.9.3-4.3-.2S420.6,395.09,421.5,393.89Z" transform="translate(-55.4 -25.09)"/><path class="cls-49" d="M474.3,377.19a87.76,87.76,0,0,0-7.6-10c-1.3,1.2-2.5,2.6-6.2,7.4,0,0,8.6,13.3,10.1,11.9s6.9-5.8,6.5-6.2" transform="translate(-55.4 -25.09)"/><path class="cls-50" d="M290.4,509.59l-11.1,5.8s4.3,9.1,7.6,24.2c0,0,3.7-4.2,12.4-9.8Z" transform="translate(-55.4 -25.09)"/><path class="cls-51" d="M341.9,524.59l.4,12.3s8.6-2,24-2.2c0,0-.3-1.8-1.1-10.1Z" transform="translate(-55.4 -25.09)"/><path class="cls-52" d="M264,558.09s-16.2,8.4-26.6.3a35.06,35.06,0,0,1-8.1-8.6c-3.6-5.6-5.7-12-.2-17.1a24.64,24.64,0,0,1,5-3.4,6.13,6.13,0,0,1,2.2-.9c.5-.1,2.1.1,2.2.8.1.5-.7.9-1,1.2-1.3,1-2.8,1.8-3.5,3.2-1.4,2.6-6.5,1.2,2.7,15.6,0,0,5.9,8.1,9.7,8.3s14.6.7,17.5-1S264,558.09,264,558.09Z" transform="translate(-55.4 -25.09)"/><path class="cls-53" d="M229,536.29a8.59,8.59,0,0,0-.9,2.4c-.4,2.3.6,4.6,1.9,6.5a42.63,42.63,0,0,0,8,8.9c2.2,1.8,5.1,4.3,8,4.7,5.5.6,19.6.4,29.6-6.5s21.7-17.1,22.2-19-2.5-.7-4.3,1-6,4.4-6.6,2.4,1.5-16.5-7.7-21.1c0,0,6.3-2.6,6.8-4s-7.1.2-21.1,5.8c-2.3.9-4.9,1.4-7.3,2.2a88,88,0,0,0-13.1,5.2,65.86,65.86,0,0,0-12.9,8.5A11,11,0,0,0,229,536.29Z" transform="translate(-55.4 -25.09)"/><path class="cls-54" d="M256.4,530.59c-.3-2.5,6.8,11,7.4,11.2" transform="translate(-55.4 -25.09)"/><path class="cls-54" d="M259.3,530.19c-.4-2,7.2,9.3,6.1,8.9" transform="translate(-55.4 -25.09)"/><path class="cls-53" d="M371.6,537.19c-5.5-9.9-23.1-12.2-30.3-3.2-5.3,6.7-6.2,16.3-6,24.5.1,3.7-.2,5.3,2.9,6.2a32.43,32.43,0,0,0,7.6.9c2.1.1,22.4,2.3,28.5-.8-.7-.6-.1-6.8-.1-7.8-.1-5-.4-10-1-15A12.8,12.8,0,0,0,371.6,537.19Z" transform="translate(-55.4 -25.09)"/><path class="cls-52" d="M374.3,564.89c-.8-1.8-3.6-4.8-5-6.3a39.56,39.56,0,0,0-5.9-4.9c-4.1-2.9-9.8-2.6-14.4-.5a38.69,38.69,0,0,0-9.4,6.7c-2.3,2.1-5.1,4.3-.6,5.1a131.84,131.84,0,0,0,16.6,1.2C360.5,566.19,369.8,567.49,374.3,564.89Z" transform="translate(-55.4 -25.09)"/><path class="cls-54" d="M349,544.69c-2.2-1.1,12.9.5,13.5.1" transform="translate(-55.4 -25.09)"/><path class="cls-54" d="M350.3,542.09c-1.8-.8,11.7-.8,10.7-.1" transform="translate(-55.4 -25.09)"/><rect class="cls-12" x="393.1" y="367.4" width="2.8" height="1.9"/><polygon class="cls-11" points="399.8 372.9 393.4 373 393.4 373.9 399.8 373.9 399.8 372.9"/><polygon class="cls-11" points="399.8 369.9 393.4 370 393.4 370.9 399.8 370.9 399.8 369.9"/><polygon class="cls-11" points="377.8 377.9 371.4 378 371.4 378.9 377.8 378.9 377.8 377.9"/><polygon class="cls-11" points="394.8 377.9 388.4 378 388.4 378.9 394.8 378.9 394.8 377.9"/><rect class="cls-11" x="353.8" y="383" width="104.3" height="1.9"/><rect class="cls-11" x="353.1" y="274.9" width="1.4" height="110"/><ellipse class="cls-11" cx="342.1" cy="325.8" rx="1.7" ry="7.7"/><path class="cls-55" d="M556.66,193c4.34.85,8.69,2.72,11.33,6.39,2.21,3.06,2.81,7.49.59,10.56a4.4,4.4,0,0,1,2.39,2.56,9.85,9.85,0,0,1,.51,3.57c-.08,4.69-2.64,10.82-3.83,15.34-.34-1.62-.34-4.43-2-4.77a4.51,4.51,0,0,0-4.43,1.7c-.51.68-.94,1.62-1.79,1.88a3.33,3.33,0,0,1-1.79-.26,11.17,11.17,0,0,0-5.79.34A1.62,1.62,0,0,1,552,228h0a1.92,1.92,0,0,1,.5-.29c.85-.34,4.09.09,4.26-1.1a1.06,1.06,0,0,0-.34-.68,14.6,14.6,0,0,0-3.07-2,1.78,1.78,0,0,1-.68-.68,1.13,1.13,0,0,1,0-.77c.34-2.3.68-5.37,2.73-6.82,1.27-.93,2.89-1.19,4.25-1.79a69.7,69.7,0,0,1,7.25-2.89c-3.84,1.19-7.59,2.3-11.42,3.49-1.87.6-3.83,1.19-5.71,1.79a20,20,0,0,1-2.4.84,12.9,12.9,0,0,1-2.55-.26c-1.79-.08-3.24.85-4.94,1.45a4.78,4.78,0,0,1-2.9.51c-.43-.08.68-1.11.85-1.45a2.72,2.72,0,0,0-1.28-3.41,4.34,4.34,0,0,0-3.83.18c-.43.17-.77.51-1.19.42s-.77-.68-.43-.94a7.94,7.94,0,0,0-3.58,4.35,1.34,1.34,0,0,1-.42.77c-1,.76-1.79-2.39-1.88-2.9a11.21,11.21,0,0,1,.17-4.43c.6-2.73,2-5.28,2.9-7.92a2.78,2.78,0,0,1-1.11.17c-.08-1.37,1.71-3.41,2.47-4.52,6-7.41,16.87-7.66,25.56-6.3A9.62,9.62,0,0,1,556.66,193Z" transform="translate(-55.4 -25.09)"/></svg>